<svg width="160" height="160" viewBox="0 0 160 160" fill="none" xmlns="http://www.w3.org/2000/svg">
<g clip-path="url(#clip0_2134_180)">
<path d="M105.527 103.27C136.701 70.9192 150.547 33.7894 136.452 20.3384C122.357 6.88732 85.6601 22.2087 54.4863 54.5597C23.3124 86.9106 9.46696 124.04 23.5616 137.491C37.6562 150.943 74.3535 135.621 105.527 103.27Z" stroke="white" stroke-width="0.53" stroke-miterlimit="10"/>
<path d="M102.744 156.856C121.497 151.434 126.513 112.146 113.947 69.1031C101.381 26.0605 75.9927 -4.43706 57.24 0.984817C38.4872 6.4067 33.4716 45.6949 46.0373 88.7374C58.6029 131.78 83.9915 162.278 102.744 156.856Z" stroke="white" stroke-width="0.53" stroke-miterlimit="10"/>
<path d="M159.211 98.2724C163.869 79.3995 132.187 55.4327 88.4477 44.7411C44.7082 34.0494 5.47419 40.6817 0.816084 59.5546C-3.84202 78.4275 27.8397 102.394 71.5792 113.086C115.319 123.778 154.553 117.145 159.211 98.2724Z" stroke="white" stroke-width="0.53" stroke-miterlimit="10"/>
<path d="M93.0313 81.557C91.4024 88.17 84.6926 92.2099 78.0475 90.5888C71.4024 88.9677 67.3429 82.2903 68.9718 75.6772C70.6008 69.0642 77.3106 65.0243 83.9557 66.6454C90.6008 68.2665 94.6603 74.9439 93.0313 81.557Z" fill="#1AE1D9"/>
<path d="M120.568 153.413C119.418 158.057 114.712 160.888 110.058 159.756C105.391 158.611 102.546 153.927 103.684 149.296C104.835 144.651 109.541 141.821 114.195 142.953C118.862 144.098 121.706 148.781 120.568 153.413Z" fill="#FFE504"/>
<path d="M139.095 19.0544C137.944 23.699 133.238 26.5295 128.584 25.3973C123.917 24.2523 121.073 19.5691 122.21 14.9374C123.361 10.2928 128.067 7.46229 132.721 8.59449C137.388 9.73955 140.232 14.4227 139.095 19.0544Z" fill="#1A43DC"/>
</g>
<defs>
<clipPath id="clip0_2134_180">
<rect width="160" height="160" fill="white"/>
</clipPath>
</defs>
</svg>
