<svg width="120" height="199" viewBox="0 0 120 199" fill="none" xmlns="http://www.w3.org/2000/svg">
<g clip-path="url(#clip0_2134_168)">
<path d="M7.71887 179.331C21.923 179.331 33.4377 167.834 33.4377 153.653C33.4377 139.471 21.923 127.975 7.71887 127.975C-6.48527 127.975 -18 139.471 -18 153.653C-18 167.834 -6.48527 179.331 7.71887 179.331Z" fill="#FFE504"/>
<path d="M84.7238 199C98.9279 199 110.443 187.504 110.443 173.322C110.443 159.14 98.9279 147.644 84.7238 147.644C70.5196 147.644 59.0049 159.14 59.0049 173.322C59.0049 187.504 70.5196 199 84.7238 199Z" fill="#FFE504"/>
<path d="M69.2814 91.923C83.4855 91.923 95.0002 80.4265 95.0002 66.2449C95.0002 52.0633 83.4855 40.5669 69.2814 40.5669C55.0772 40.5669 43.5625 52.0633 43.5625 66.2449C43.5625 80.4265 55.0772 91.923 69.2814 91.923Z" fill="#1AE1D9"/>
<path d="M110.462 110.535C115.73 110.535 120 106.271 120 101.012C120 95.7524 115.73 91.4888 110.462 91.4888C105.194 91.4888 100.924 95.7524 100.924 101.012C100.924 106.271 105.194 110.535 110.462 110.535Z" fill="white"/>
<path d="M88.3389 9.52298C88.3389 14.7757 84.0809 19.046 78.8008 19.046C73.5208 19.046 69.2627 14.7946 69.2627 9.52298C69.2627 4.25133 73.5208 0 78.8008 0C84.0809 0 88.3389 4.25133 88.3389 9.52298Z" fill="white"/>
<path d="M21.5909 85.5557C21.5909 90.8084 17.3328 95.0787 12.0528 95.0787C6.77274 95.0787 2.51465 90.8273 2.51465 85.5557C2.51465 80.284 6.77274 76.0327 12.0528 76.0327C17.3328 76.0327 21.5909 80.284 21.5909 85.5557Z" fill="white"/>
<path d="M26.0566 135.06L54.7656 87.4263" stroke="white" stroke-width="0.53" stroke-miterlimit="10" stroke-linecap="round"/>
<path d="M75.7539 91.0918L85.8408 145.49" stroke="white" stroke-width="0.53" stroke-miterlimit="10" stroke-linecap="round"/>
<path d="M89.1523 82.5322L103.005 95.0784" stroke="white" stroke-width="0.53" stroke-miterlimit="10" stroke-linecap="round"/>
<path d="M21.5908 82.5324L44.9252 74.4644" stroke="white" stroke-width="0.53" stroke-miterlimit="10" stroke-linecap="round"/>
<path d="M76.6807 18.7812L73.7852 40.5669" stroke="white" stroke-width="0.53" stroke-miterlimit="10" stroke-linecap="round"/>
</g>
<defs>
<clipPath id="clip0_2134_168">
<rect width="138" height="199" fill="white" transform="translate(-18)"/>
</clipPath>
</defs>
</svg>
